<svg width="330" height="110" xmlns="http://www.w3.org/2000/svg">
 <metadata id="metadata8">image/svg+xml</metadata>

 <g>
  <title>background</title>
  <rect fill="none" id="canvas_background" height="112" width="332" y="-1" x="-1"/>
 </g>
 <g>
  <title>Layer 1</title>
  <path fill="#03a9f4" fill-rule="evenodd" d="m32.45733,6.448c9.41773,14.92027 12.3624,32.3744 9.14627,52.24c-0.91507,-20.38013 -6.77653,-36.9964 -17.79893,-49.68667c2.8844,-0.852 5.7688,-1.70267 8.65267,-2.55333" id="path14"/>
  <path fill="#03a9f4" fill-rule="evenodd" d="m18.82027,10.64933c9.18707,10.59547 15.5048,22.6256 17.88027,36.62667c-5.6584,-12.80147 -14.51507,-23.2348 -25.6672,-31.97067c2.59533,-1.552 5.1912,-3.104 7.78693,-4.656" id="path16"/>
  <path fill="#01579b" fill-rule="evenodd" d="m131.17066,23.00986c-34.716,25.55893 -58.80667,53.28173 -69.79093,83.6756c-10.1428,-17.3068 -21.1688,-33.63027 -33.28907,-48.73907c10.26093,3.09053 20.08907,8.77547 29.25147,18.4572c15.54533,-24.20467 42.48987,-41.59 73.82853,-53.39373zm-89.89613,45.54587c6.0916,3.29267 11.7052,8.64787 16.60307,14.23387c12.6344,-19.74173 27.01307,-32.29227 44.9064,-41.85787c-16.29467,14.62707 -31.75693,34.92093 -42.2288,56.4428c-5.962,-9.61307 -12.26147,-19.0824 -19.28067,-28.8188" id="path18"/>
  <path fill="#01579b" fill-rule="evenodd" d="m38.1016,5.748c19.226,1.86667 38.452,3.73467 57.6784,5.60267c0.20533,7.6764 0.412,15.35293 0.61733,23.03c-2.06267,0.81413 -4.088,1.8912 -6.09733,3.09013c-0.02667,-7.1416 -0.05467,-14.28227 -0.08133,-21.42347c-13.76133,-1.47 -27.52173,-2.93933 -41.28227,-4.40867c7.2672,16.502 7.67507,32.8832 3.87347,53.39467c-2.44427,-1.75787 -4.8896,-3.5156 -7.33333,-5.27347c3.25413,-19.27387 1.23493,-37.37493 -7.37493,-54.01187" id="path20"/>
  <path fill="#01579b" fill-rule="evenodd" d="m61.09067,20.374l21.25867,1.73013l0,7.5808l-19.03427,-1.48333l-2.2244,-7.8276" id="path22"/>
  <path fill="#01579b" fill-rule="nonzero" d="m99.5552,95.2448c0.84267,0 1.6172,-0.10787 2.3136,-0.32347c0.70053,-0.21613 1.2984,-0.5292 1.7984,-0.9312c0.5,-0.40213 0.88693,-0.8776 1.1516,-1.43133c0.26453,-0.54893 0.3968,-1.17133 0.3968,-1.8572l0,-0.05893c0,-1.47547 -0.50413,-2.59267 -1.51867,-3.34733c-1.01,-0.75987 -2.35267,-1.13747 -4.024,-1.13747l-5.21987,0l0,9.08693l5.10213,0zm-7.42551,-11.23333l7.70471,0c1.1568,0 2.21093,0.1516 3.16147,0.45627c0.95053,0.30307 1.764,0.73493 2.44053,1.2932c0.67613,0.5588 1.19587,1.24013 1.55893,2.04373c0.36253,0.80413 0.54373,1.7156 0.54373,2.73493l0,0.0588c0,1.11773 -0.2156,2.0928 -0.64693,2.92613c-0.4312,0.83333 -1.01453,1.53373 -1.75,2.10253c-0.7348,0.5688 -1.59267,0.9948 -2.5728,1.2792c-0.97973,0.2844 -2.01933,0.42653 -3.11667,0.42653l-4.9996,0l0,7.26303l-2.32337,0l0,-20.58436" id="path24"/>
  <path fill="#01579b" fill-rule="nonzero" d="m118.82707,84.01146l14.87973,0l0,2.088l-12.55627,0l0,7.08693l11.2328,0l0,2.08813l-11.2328,0l0,7.2338l12.70307,0l0,2.08749l-15.02653,0l0,-20.58436" id="path26"/>
  <path fill="#01579b" fill-rule="nonzero" d="m153.21307,94.50986c0.76973,0 1.47547,-0.09787 2.1224,-0.29427c0.65147,-0.19627 1.2104,-0.47547 1.6812,-0.83853c0.47547,-0.362 0.84267,-0.80307 1.10733,-1.32293c0.26507,-0.5192 0.39733,-1.11253 0.39733,-1.7792l0,-0.0588c0,-1.274 -0.46093,-2.2692 -1.38747,-2.98493c-0.92133,-0.71507 -2.22027,-1.07333 -3.8912,-1.07333l-6.36667,0l0,8.352l6.33707,0zm-8.6604,-10.4984l8.85147,0c1.27453,0 2.4068,0.1812 3.3964,0.54427c0.99013,0.36253 1.8088,0.8672 2.45573,1.514c0.50987,0.51 0.9016,1.10787 1.176,1.79387c0.27453,0.68587 0.412,1.44107 0.412,2.26453l0,0.05827c0,0.86307 -0.13747,1.63293 -0.412,2.30893c-0.2744,0.67653 -0.66147,1.26453 -1.16147,1.764c-0.5,0.5 -1.09267,0.912 -1.77867,1.23547c-0.6864,0.32347 -1.43173,0.5536 -2.23533,0.6912l6.3224,8.40983l-2.85267,0l-5.9692,-7.99849l-0.05893,0l-5.8224,0l0,7.99849l-2.32333,0l0,-20.58436" id="path28"/>
  <path fill="#01579b" fill-rule="nonzero" d="m172.9084,84.01146l2.35253,0l7.4984,11.23333l7.49907,-11.23333l2.35253,0l0,20.58436l-2.32347,0l0,-16.67289l-7.4984,11.02707l-0.11773,0l-7.49893,-10.9984l0,16.64423l-2.264,0l0,-20.58436" id="path30"/>
  <path fill="#01579b" fill-rule="nonzero" d="m206.6812,84.01146l2.32293,0l0,20.58436l-2.32293,0l0,-20.58436" id="path32"/>
  <path fill="#01579b" fill-rule="nonzero" d="m227.52667,86.15786l-6.91067,0l0,-2.1464l16.144,0l0,2.1464l-6.90933,0l0,18.43796l-2.324,0l0,-18.43796" id="path34"/>
  <path fill="#01579b" fill-rule="nonzero" d="m248.19467,84.01146l14.88,0l0,2.088l-12.556,0l0,7.08693l11.23333,0l0,2.08813l-11.23333,0l0,7.2338l12.70267,0l0,2.08749l-15.02667,0l0,-20.58436" id="path36"/>
  <path fill="#01579b" fill-rule="nonzero" d="m274.95066,84.01146l14.88,0l0,2.088l-12.55733,0l0,7.08693l11.23333,0l0,2.08813l-11.23333,0l0,7.2338l12.70533,0l0,2.08749l-15.028,0l0,-20.58436" id="path38"/>
  <path fill="#01579b" fill-rule="nonzero" d="m309.708,94.50986c0.76933,0 1.47467,-0.09787 2.12267,-0.29427c0.65067,-0.19627 1.20933,-0.47547 1.68133,-0.83853c0.47467,-0.362 0.84267,-0.80307 1.10667,-1.32293c0.26533,-0.5192 0.39733,-1.11253 0.39733,-1.7792l0,-0.0588c0,-1.274 -0.46133,-2.2692 -1.388,-2.98493c-0.92133,-0.71507 -2.21867,-1.07333 -3.89067,-1.07333l-6.36667,0l0,8.352l6.33733,0zm-8.66,-10.4984l8.85067,0c1.27467,0 2.40667,0.1812 3.396,0.54427c0.99067,0.36253 1.80933,0.8672 2.456,1.514c0.50933,0.51 0.90133,1.10787 1.176,1.79387c0.27467,0.68587 0.412,1.44107 0.412,2.26453l0,0.05827c0,0.86307 -0.13733,1.63293 -0.412,2.30893c-0.27467,0.67653 -0.66133,1.26453 -1.16133,1.764c-0.5,0.5 -1.092,0.912 -1.77867,1.23547c-0.68667,0.32347 -1.432,0.5536 -2.23467,0.6912l6.32133,8.40983l-2.852,0l-5.96933,-7.99849l-0.05867,0l-5.82267,0l0,7.99849l-2.32267,0l0,-20.58436" id="path40"/>
 </g>
</svg>
