<svg width="475" height="402" xmlns="http://www.w3.org/2000/svg">
 <!-- Created with Method Draw - http://github.com/duopixel/Method-Draw/ -->

 <g>
  <title>background</title>
  <rect fill="none" id="canvas_background" height="404" width="477" y="-1" x="-1"/>
  <g display="none" id="canvasGrid">
   <rect fill="url(#gridpattern)" stroke-width="0" y="1" x="1" height="400" width="580" id="svg_1"/>
  </g>
 </g>
 <g>
  <title>Layer 1</title>
  <metadata id="svg_37">image/svg+xml</metadata>
  <g stroke="null" id="svg_39">
   <g stroke="null" id="svg_21" transform="matrix(5.135517003524365,0,0,-5.135517003524365,-3520.2493874630777,-1729.5060563615102) ">
    <path stroke="null" fill="#03a9f4" fill-rule="evenodd" d="m703.03018,-338.70609c7.0633,-11.1902 9.27179,-24.2808 6.85969,-39.18c-0.68629,15.2851 -5.0824,27.7473 -13.3492,37.265c2.16331,0.639 4.3266,1.277 6.48951,1.915" id="svg_36"/>
    <path stroke="null" fill="#03a9f4" fill-rule="evenodd" d="m692.80238,-341.85709c6.8903,-7.9466 11.6286,-16.9692 13.4102,-27.47c-4.2438,9.6011 -10.8863,17.4261 -19.2504,23.978c1.9465,1.164 3.8934,2.328 5.8402,3.492" id="svg_35"/>
    <path stroke="null" fill="#01579b" fill-rule="evenodd" d="m777.06518,-351.12749c-26.037,-19.1692 -44.10501,-39.9613 -52.34321,-62.7567c-7.60709,12.9801 -15.8766,25.2227 -24.9668,36.5543c7.6957,-2.3179 15.0668,-6.5816 21.9386,-13.8429c11.659,18.1535 31.8674,31.1925 55.37141,40.04531l0,-0.00001zm-67.42211,-34.1594c4.56871,-2.4695 8.77891,-6.4859 12.45231,-10.6754c9.4758,14.8063 20.2598,24.2192 33.6798,31.3934c-12.221,-10.9703 -23.8177,-26.1907 -31.6716,-42.3321c-4.4715,7.2098 -9.1961,14.3118 -14.4605,21.6141" id="svg_34"/>
    <path stroke="null" fill="#01579b" fill-rule="evenodd" d="m707.26338,-338.18108c14.41949,-1.4 28.839,-2.801 43.2588,-4.202c0.154,-5.7573 0.309,-11.5147 0.463,-17.2725c-1.547,-0.6106 -3.066,-1.4184 -4.573,-2.3176c-0.02,5.3562 -0.041,10.7117 -0.061,16.06759c-10.321,1.10251 -20.6413,2.2045 -30.9617,3.30651c5.4504,-12.37651 5.7563,-24.6624 2.9051,-40.04601c-1.8332,1.3184 -3.6672,2.6367 -5.5,3.9551c2.4406,14.4554 0.9262,28.0312 -5.5312,40.50891" id="svg_33"/>
    <path stroke="null" fill="#01579b" fill-rule="evenodd" d="m724.50518,-349.15059l15.94399,-1.2976l0,-5.6856l-14.2757,1.1125l-1.6683,5.8707" id="svg_32"/>
   </g>
  </g>
 </g>
</svg>
